{
	"asset":{
		"generator":"Khronos glTF Blender I/O v5.1.19",
		"version":"2.0"
	},
	"scene":0,
	"scenes":[
		{
			"extras":{
				"automirror":{
					"orientation":2,
					"axis":1,
					"show_on_cage":1
				}
			},
			"name":"Scene",
			"nodes":[
				26
			]
		}
	],
	"nodes":[
		{
			"name":"headtop_end",
			"rotation":[
				-2.253159436804708e-09,
				1.3176048116068581e-14,
				-1.4311558462301067e-14,
				1
			],
			"translation":[
				2.010727806478485e-09,
				0.41270017623901367,
				-0.02300000749528408
			]
		},
		{
			"children":[
				0
			],
			"name":"head",
			"rotation":[
				1.2705494208814505e-21,
				-9.363169961584816e-16,
				-3.45643906698263e-15,
				1
			],
			"translation":[
				6.644136907318909e-10,
				0.13630008697509766,
				-0.007600002456456423
			]
		},
		{
			"children":[
				1
			],
			"name":"neck",
			"rotation":[
				-0.011278948746621609,
				-4.930229557942312e-10,
				-9.91625781487926e-10,
				0.9999364018440247
			],
			"scale":[
				1,
				1,
				0.9999999403953552
			],
			"translation":[
				7.771561172376096e-15,
				0.1562999188899994,
				1.8626531428367343e-09
			]
		},
		{
			"name":"hand.L",
			"rotation":[
				1.6031932725812936e-11,
				6.92154666914746e-16,
				1.8813710589427046e-09,
				1
			],
			"translation":[
				6.841673894086853e-10,
				0.2475002408027649,
				-3.658418679108877e-09
			]
		},
		{
			"children":[
				3
			],
			"name":"forearm.L",
			"rotation":[
				-3.831883768623534e-11,
				-0.0006719803786836565,
				-4.882217297108582e-09,
				0.9999997615814209
			],
			"translation":[
				-6.465157298407576e-10,
				0.2892000079154968,
				-6.392254903175854e-08
			]
		},
		{
			"children":[
				4
			],
			"name":"arm.L",
			"rotation":[
				-0.1494145542383194,
				0.008093999698758125,
				0.0018982122419402003,
				0.9887397289276123
			],
			"translation":[
				1.5133991837501526e-09,
				0.16930000483989716,
				-1.04919308796525e-07
			]
		},
		{
			"children":[
				5
			],
			"name":"shoulder.L",
			"rotation":[
				0.5708526372909546,
				-0.4184097647666931,
				0.5673156976699829,
				0.42096731066703796
			],
			"scale":[
				0.9999997615814209,
				0.9999998211860657,
				0.9999999403953552
			],
			"translation":[
				-0.08049999922513962,
				0.13059993088245392,
				0.0004999954253435135
			]
		},
		{
			"name":"hand.R",
			"rotation":[
				-2.0091470154248725e-11,
				-8.38305119765792e-16,
				1.882107136808031e-09,
				1
			],
			"translation":[
				6.466720492426248e-10,
				0.2473999559879303,
				5.6790906199921665e-08
			]
		},
		{
			"children":[
				7
			],
			"name":"forearm.R",
			"rotation":[
				4.552995827578066e-11,
				0.0006141678895801306,
				-4.52555948271538e-09,
				0.9999998211860657
			],
			"scale":[
				0.9999998807907104,
				1,
				0.9999998807907104
			],
			"translation":[
				4.766391725752328e-10,
				0.2891000509262085,
				7.432348070324224e-08
			]
		},
		{
			"children":[
				8
			],
			"name":"arm.R",
			"rotation":[
				-0.14969754219055176,
				-0.007101947907358408,
				-0.002887061098590493,
				0.988702118396759
			],
			"scale":[
				1,
				0.9999999403953552,
				1
			],
			"translation":[
				1.1641532182693481e-10,
				0.16929996013641357,
				4.487810656428337e-08
			]
		},
		{
			"children":[
				9
			],
			"name":"shoulder.R",
			"rotation":[
				0.5714455246925354,
				0.4179016947746277,
				-0.5669572353363037,
				0.4211503565311432
			],
			"scale":[
				1.0000001192092896,
				1.0000001192092896,
				1
			],
			"translation":[
				0.08049999922513962,
				0.1306999921798706,
				0.0006000092253088951
			]
		},
		{
			"children":[
				2,
				6,
				10
			],
			"name":"spine2",
			"rotation":[
				0,
				1.0103029524088925e-14,
				3.186340080674199e-14,
				1
			],
			"translation":[
				9.769962616701378e-15,
				0.1388999968767166,
				9.313282367529041e-10
			]
		},
		{
			"children":[
				11
			],
			"name":"spine1",
			"rotation":[
				0,
				-4.6074255521944e-15,
				-1.0658141036401503e-14,
				1
			],
			"translation":[
				6.661338147750939e-16,
				0.12150011211633682,
				1.3969874146368966e-09
			]
		},
		{
			"children":[
				12
			],
			"name":"spine",
			"rotation":[
				0.011278949677944183,
				-3.1291460089732936e-08,
				1.350125455878981e-09,
				0.9999364018440247
			],
			"translation":[
				-3.4728675490924843e-10,
				0.10420012474060059,
				0.002300000051036477
			]
		},
		{
			"name":"toe_end.L",
			"rotation":[
				-3.64379957318306e-08,
				1.4575198292732239e-06,
				-2.8812792152166367e-09,
				1
			],
			"translation":[
				2.3283064365386963e-09,
				0.07929985225200653,
				0
			]
		},
		{
			"children":[
				14
			],
			"name":"toebase.L",
			"rotation":[
				0.34339743852615356,
				-0.14287281036376953,
				0.0529390424489975,
				0.9267486333847046
			],
			"scale":[
				1,
				1,
				0.9999999403953552
			],
			"translation":[
				-2.939486876130104e-09,
				0.19079986214637756,
				-5.587935447692871e-09
			]
		},
		{
			"children":[
				15
			],
			"name":"foot.L",
			"rotation":[
				0.07267478853464127,
				0.8672542572021484,
				-0.4753555655479431,
				0.12894003093242645
			],
			"scale":[
				0.9999999403953552,
				0.9999995827674866,
				0.9999999403953552
			],
			"translation":[
				3.794411895796657e-09,
				0.17609991133213043,
				-1.5133991837501526e-09
			]
		},
		{
			"children":[
				16
			],
			"name":"leg.L",
			"rotation":[
				0.12177516520023346,
				0.0058437371626496315,
				0.04752151295542717,
				0.9914022088050842
			],
			"translation":[
				-7.683411240577698e-09,
				0.2746000587940216,
				-3.3032847568392754e-09
			]
		},
		{
			"children":[
				17
			],
			"name":"upleg.L",
			"rotation":[
				0.0015211075078696012,
				-0.06889347732067108,
				0.9974544644355774,
				0.018329303711652756
			],
			"scale":[
				1.000000238418579,
				1.0000001192092896,
				1.0000035762786865
			],
			"translation":[
				-0.10480000823736191,
				-0.05799991637468338,
				0.02609998546540737
			]
		},
		{
			"name":"toe_end.R",
			"rotation":[
				-3.0850060284137726e-08,
				-1.194886863231659e-06,
				1.2791133485734463e-07,
				1
			],
			"scale":[
				1,
				0.9999999403953552,
				1
			],
			"translation":[
				4.656612873077393e-10,
				0.07939969748258591,
				-3.725290298461914e-09
			]
		},
		{
			"children":[
				19
			],
			"name":"toebase.R",
			"rotation":[
				0.34065449237823486,
				0.14729805290699005,
				-0.05412912368774414,
				0.9269993901252747
			],
			"scale":[
				0.9999999403953552,
				1,
				1
			],
			"translation":[
				-4.48198989033699e-09,
				0.19229955971240997,
				-1.30385160446167e-08
			]
		},
		{
			"children":[
				20
			],
			"name":"foot.R",
			"rotation":[
				0.07231194525957108,
				-0.8640276193618774,
				0.4820220172405243,
				0.12602397799491882
			],
			"scale":[
				0.9999999403953552,
				1.0000001192092896,
				1
			],
			"translation":[
				1.1408701539039612e-08,
				0.17629985511302948,
				-1.1641532182693481e-09
			]
		},
		{
			"children":[
				21
			],
			"name":"leg.R",
			"rotation":[
				0.12257645279169083,
				-0.005874508526176214,
				-0.04752105847001076,
				0.9913033246994019
			],
			"translation":[
				1.074658939614892e-08,
				0.27430012822151184,
				1.964508555829525e-09
			]
		},
		{
			"children":[
				22
			],
			"name":"upleg.R",
			"rotation":[
				0.0014350698329508305,
				0.06523982435464859,
				-0.9976997375488281,
				0.01835680566728115
			],
			"scale":[
				1.0000005960464478,
				1.000000238418579,
				1.0000076293945312
			],
			"translation":[
				0.10479999333620071,
				-0.05799995735287666,
				0.0240000169724226
			]
		},
		{
			"children":[
				13,
				18,
				23
			],
			"name":"hips",
			"rotation":[
				7.053250783428666e-08,
				1.1920927533992653e-07,
				-4.371138828673793e-08,
				1
			],
			"scale":[
				1,
				0.9999999403953552,
				0.9999999403953552
			],
			"translation":[
				4.271032346422985e-15,
				0.647102952003479,
				4.8854914780349645e-08
			]
		},
		{
			"mesh":0,
			"name":"_FTemplate",
			"skin":0
		},
		{
			"children":[
				25,
				24
			],
			"name":"Armature"
		}
	],
	"materials":[
		{
			"doubleSided":true,
			"emissiveFactor":[
				1,
				1,
				1
			],
			"name":"Material.001"
		}
	],
	"meshes":[
		{
			"name":"Sphere.003",
			"primitives":[
				{
					"attributes":{
						"POSITION":0,
						"NORMAL":1,
						"COLOR_0":2,
						"JOINTS_0":3,
						"WEIGHTS_0":4
					},
					"indices":5,
					"material":0
				}
			]
		}
	],
	"skins":[
		{
			"inverseBindMatrices":6,
			"joints":[
				24,
				13,
				12,
				11,
				2,
				1,
				0,
				6,
				5,
				4,
				3,
				10,
				9,
				8,
				7,
				18,
				17,
				16,
				15,
				14,
				23,
				22,
				21,
				20,
				19
			],
			"name":"Armature"
		}
	],
	"accessors":[
		{
			"bufferView":0,
			"componentType":5126,
			"count":902,
			"max":[
				0.8864767551422119,
				1.716788649559021,
				0.23153407871723175
			],
			"min":[
				-0.8864767551422119,
				0.019104324281215668,
				-0.2806081771850586
			],
			"type":"VEC3"
		},
		{
			"bufferView":1,
			"componentType":5126,
			"count":902,
			"type":"VEC3"
		},
		{
			"bufferView":2,
			"componentType":5126,
			"count":902,
			"type":"VEC3"
		},
		{
			"bufferView":3,
			"componentType":5121,
			"count":902,
			"type":"VEC4"
		},
		{
			"bufferView":4,
			"componentType":5126,
			"count":902,
			"type":"VEC4"
		},
		{
			"bufferView":5,
			"componentType":5123,
			"count":1398,
			"type":"SCALAR"
		},
		{
			"bufferView":6,
			"componentType":5126,
			"count":25,
			"type":"MAT4"
		}
	],
	"bufferViews":[
		{
			"buffer":0,
			"byteLength":10824,
			"byteOffset":0,
			"target":34962
		},
		{
			"buffer":0,
			"byteLength":10824,
			"byteOffset":10824,
			"target":34962
		},
		{
			"buffer":0,
			"byteLength":10824,
			"byteOffset":21648,
			"target":34962
		},
		{
			"buffer":0,
			"byteLength":3608,
			"byteOffset":32472,
			"target":34962
		},
		{
			"buffer":0,
			"byteLength":14432,
			"byteOffset":36080,
			"target":34962
		},
		{
			"buffer":0,
			"byteLength":2796,
			"byteOffset":50512,
			"target":34963
		},
		{
			"buffer":0,
			"byteLength":1600,
			"byteOffset":53308
		}
	],
	"buffers":[
		{
			"byteLength":54908,
			"uri":"BaseChar1.bin"
		}
	]
}
